name GIL01_static.mot
datacolumns 141
datarows 4
range 0.89166665 0.91666669
endheader

                time	           pelvis_tx	           pelvis_ty	           pelvis_tz	         pelvis_tilt	         pelvis_list	     pelvis_rotation	       hip_flexion_r	     hip_adduction_r	      hip_rotation_r	        knee_angle_r	       ankle_angle_r	    subtalar_angle_r	         mtp_angle_r	       hip_flexion_l	     hip_adduction_l	      hip_rotation_l	        knee_angle_l	       ankle_angle_l	    subtalar_angle_l	         mtp_angle_l	    lumbar_extension	      lumbar_bending	     lumbar_rotation	    ground_marker_px	    ground_marker_py	    ground_marker_pz	    ground_marker_px	    ground_marker_py	    ground_marker_pz	    ground_marker_px	    ground_marker_py	    ground_marker_pz	    ground_marker_px	    ground_marker_py	    ground_marker_pz	    ground_marker_px	    ground_marker_py	    ground_marker_pz	    ground_marker_px	    ground_marker_py	    ground_marker_pz	    ground_marker_px	    ground_marker_py	    ground_marker_pz	    ground_marker_px	    ground_marker_py	    ground_marker_pz	    ground_marker_px	    ground_marker_py	    ground_marker_pz	    ground_marker_px	    ground_marker_py	    ground_marker_pz	    ground_marker_px	    ground_marker_py	    ground_marker_pz	    ground_marker_px	    ground_marker_py	    ground_marker_pz	    ground_marker_px	    ground_marker_py	    ground_marker_pz	    ground_marker_px	    ground_marker_py	    ground_marker_pz	    ground_marker_px	    ground_marker_py	    ground_marker_pz	    ground_marker_px	    ground_marker_py	    ground_marker_pz	    ground_marker_px	    ground_marker_py	    ground_marker_pz	    ground_marker_px	    ground_marker_py	    ground_marker_pz	    ground_marker_px	    ground_marker_py	    ground_marker_pz	    ground_marker_px	    ground_marker_py	    ground_marker_pz	    ground_marker_px	    ground_marker_py	    ground_marker_pz	    ground_marker_px	    ground_marker_py	    ground_marker_pz	    ground_marker_px	    ground_marker_py	    ground_marker_pz	    ground_marker_px	    ground_marker_py	    ground_marker_pz	    ground_marker_px	    ground_marker_py	    ground_marker_pz	    ground_marker_px	    ground_marker_py	    ground_marker_pz	    ground_marker_px	    ground_marker_py	    ground_marker_pz	    ground_marker_px	    ground_marker_py	    ground_marker_pz	    ground_marker_px	    ground_marker_py	    ground_marker_pz	    ground_marker_px	    ground_marker_py	    ground_marker_pz	    ground_marker_px	    ground_marker_py	    ground_marker_pz	    ground_marker_px	    ground_marker_py	    ground_marker_pz	    ground_marker_px	    ground_marker_py	    ground_marker_pz	    ground_marker_px	    ground_marker_py	    ground_marker_pz	    ground_marker_px	    ground_marker_py	    ground_marker_pz	    ground_marker_px	    ground_marker_py	    ground_marker_pz	    ground_marker_px	    ground_marker_py	    ground_marker_pz	    ground_marker_px	    ground_marker_py	    ground_marker_pz	    ground_marker_px	    ground_marker_py	    ground_marker_pz	
          0.89166665	          0.61184824	          0.80953503	         -0.25575596	         -4.11431694	          0.55727518	         -7.61260748	         -3.48499298	         -6.67355156	          2.04505801	         13.66854858	         -7.38710022	          0.00000000	          0.00000000	         -7.71977520	         -4.44890642	         -9.97844696	         12.89833355	         -3.04531813	          0.00000000	          0.00000000	          3.28618526	          5.64332247	          3.50373793	          0.53943372	          0.74327636	         -0.26341110	          0.53096682	          0.74506867	         -0.19883069	          0.54790062	          0.74148399	         -0.32799152	          0.47998831	          0.40652880	         -0.15565915	          0.48457316	          0.42397833	         -0.35289583	          0.51169538	          0.06682712	         -0.11928765	          0.49460861	          0.07017828	         -0.39076895	          0.61184824	          0.80953503	         -0.25575596	          0.59824413	          0.81241477	         -0.15199247	          0.62545234	          0.80665523	         -0.35951945	          0.45381692	          0.85589010	         -0.24415767	          0.45660928	          0.85401046	         -0.29944316	          0.47567561	          0.41410336	         -0.10135421	          0.48322380	          0.42850623	         -0.40719065	          0.48633039	          0.40686464	         -0.20763046	          0.48969382	          0.39985928	         -0.30536136	          0.49943593	          0.06946678	         -0.08394662	          0.48439077	          0.07367669	         -0.42615762	          0.51537496	          0.06577642	         -0.14189102	          0.49783719	          0.06639966	         -0.37234047	          0.47771421	          0.03736129	         -0.14386088	          0.43719715	          0.04128439	         -0.38094705	          0.55275708	          1.17205441	         -0.27321470	          0.58926713	          1.09309554	         -0.27392080	          0.45988545	          1.21899509	         -0.28724149	          0.56407875	          1.17173660	         -0.23318368	          0.56931025	          1.17709887	         -0.30816221	          0.60713124	          0.03665007	         -0.08496772	          0.59590286	          0.03887317	         -0.42050919	          0.59068888	          0.52878368	         -0.05623001	          0.65942401	          0.52583927	         -0.35525212	          0.52598441	          0.58852971	         -0.09779189	          0.59840059	          0.59753078	         -0.38223660	          0.51522195	          0.50132996	         -0.10604636	          0.57390034	          0.51309234	         -0.38500968	          0.46624303	          0.18521781	         -0.02129029	          0.49043474	          0.20557803	         -0.48773119	          0.48072085	          0.14451604	         -0.09182334	          0.47874585	          0.15824248	         -0.41914269	
          0.89999998	          0.61193216	          0.80952513	         -0.25576657	         -4.12199402	          0.55840725	         -7.60333443	         -3.48633385	         -6.67391109	          2.04953861	         13.67009258	         -7.38046598	          0.00000000	          0.00000000	         -7.71705770	         -4.44770956	         -9.96373177	         12.89999104	         -3.04119205	          0.00000000	          0.00000000	          3.25871611	          5.61390209	          3.63070154	          0.53950775	          0.74327660	         -0.26341510	          0.53105074	          0.74506587	         -0.19883332	          0.54796481	          0.74148726	         -0.32799691	          0.48002636	          0.40653521	         -0.15567519	          0.48460391	          0.42398068	         -0.35290384	          0.51169354	          0.06682017	         -0.11931177	          0.49461547	          0.07016805	         -0.39077124	          0.61193216	          0.80952513	         -0.25576657	          0.59834594	          0.81239969	         -0.15201560	          0.62551844	          0.80665064	         -0.35951757	          0.45393723	          0.85588425	         -0.24417564	          0.45670190	          0.85402972	         -0.29945484	          0.47572720	          0.41410655	         -0.10136871	          0.48326021	          0.42850798	         -0.40719885	          0.48627323	          0.40686741	         -0.20764096	          0.48972484	          0.39987367	         -0.30525818	          0.49944279	          0.06946144	         -0.08396786	          0.48440164	          0.07366668	         -0.42616102	          0.51537526	          0.06575610	         -0.14190970	          0.49785906	          0.06637745	         -0.37235057	          0.47772491	          0.03735693	         -0.14386468	          0.43719432	          0.04129180	         -0.38094661	          0.55276453	          1.17203093	         -0.27312979	          0.58923191	          1.09305274	         -0.27389097	          0.45997101	          1.21900010	         -0.28716773	          0.56418055	          1.17172313	         -0.23313257	          0.56923759	          1.17705262	         -0.30811089	          0.60713285	          0.03664655	         -0.08497199	          0.59590888	          0.03886488	         -0.42050925	          0.59075081	          0.52876496	         -0.05625395	          0.65947068	          0.52579892	         -0.35523874	          0.52604043	          0.58851373	         -0.09781310	          0.59846747	          0.59752923	         -0.38225731	          0.51523572	          0.50131977	         -0.10606461	          0.57392752	          0.51300240	         -0.38498202	          0.46626246	          0.18521953	         -0.02129891	          0.49045250	          0.20558070	         -0.48773295	          0.48073971	          0.14450611	         -0.09184460	          0.47875500	          0.15824918	         -0.41914290	
          0.90833336	          0.61201000	          0.80952781	         -0.25577164	         -4.12582779	          0.56256115	         -7.59582329	         -3.49138927	         -6.67888927	          2.05653787	         13.67245483	         -7.37444830	          0.00000000	          0.00000000	         -7.71987200	         -4.44300175	         -9.95009136	         12.90213299	         -3.03617644	          0.00000000	          0.00000000	          3.24222016	          5.61892509	          3.75437665	          0.53958046	          0.74328482	         -0.26341954	          0.53113037	          0.74506783	         -0.19883664	          0.54803050	          0.74150175	         -0.32800242	          0.48005649	          0.40655231	         -0.15568458	          0.48462653	          0.42400208	         -0.35291219	          0.51168400	          0.06682943	         -0.11932500	          0.49460486	          0.07018636	         -0.39077374	          0.61201000	          0.80952781	         -0.25577164	          0.59843540	          0.81239212	         -0.15202264	          0.62558460	          0.80666351	         -0.35952061	          0.45405278	          0.85588372	         -0.24418943	          0.45679426	          0.85404575	         -0.29946029	          0.47577146	          0.41412169	         -0.10137672	          0.48328951	          0.42852885	         -0.40720740	          0.48615393	          0.40693986	         -0.20765360	          0.48966736	          0.39996397	         -0.30521196	          0.49944216	          0.06947281	         -0.08397815	          0.48439530	          0.07368559	         -0.42616472	          0.51532286	          0.06579725	         -0.14193644	          0.49785435	          0.06639998	         -0.37234429	          0.47772980	          0.03736652	         -0.14386700	          0.43719578	          0.04130419	         -0.38094157	          0.55275339	          1.17204499	         -0.27298978	          0.58920437	          1.09306026	         -0.27385080	          0.46004573	          1.21901929	         -0.28709808	          0.56425881	          1.17172551	         -0.23300885	          0.56914937	          1.17707229	         -0.30801630	          0.60712850	          0.03665258	         -0.08496860	          0.59589887	          0.03888444	         -0.42051482	          0.59079599	          0.52876121	         -0.05626824	          0.65949929	          0.52578205	         -0.35523057	          0.52605826	          0.58855385	         -0.09779824	          0.59855670	          0.59756070	         -0.38222253	          0.51520854	          0.50134015	         -0.10606921	          0.57393378	          0.51300806	         -0.38494951	          0.46627668	          0.18523274	         -0.02130145	          0.49045870	          0.20560008	         -0.48773500	          0.48071715	          0.14455225	         -0.09182540	          0.47871619	          0.15830490	         -0.41915733	
          0.91666669	          0.61208755	          0.80953479	         -0.25577065	         -4.12790489	          0.56894106	         -7.59054232	         -3.49772835	         -6.68661594	          2.06490278	         13.67482281	         -7.36894846	          0.00000000	          0.00000000	         -7.72489357	         -4.43544340	         -9.94101143	         12.90357971	         -3.03002167	          0.00000000	          0.00000000	          3.19933653	          5.64422083	          4.05184031	          0.53965515	          0.74329537	         -0.26342314	          0.53120887	          0.74507010	         -0.19883955	          0.54810143	          0.74152064	         -0.32800677	          0.48008490	          0.40657479	         -0.15569025	          0.48465124	          0.42403105	         -0.35291636	          0.51167119	          0.06684850	         -0.11932729	          0.49458727	          0.07022306	         -0.39077416	          0.61208755	          0.80953479	         -0.25577065	          0.59851837	          0.81238598	         -0.15201528	          0.62565672	          0.80668366	         -0.35952604	          0.45415866	          0.85588861	         -0.24419798	          0.45688808	          0.85405803	         -0.29945776	          0.47581294	          0.41414300	         -0.10138121	          0.48331890	          0.42855722	         -0.40721172	          0.48617625	          0.40700147	         -0.20763578	          0.48944482	          0.40014291	         -0.30539095	          0.49943754	          0.06949473	         -0.08397783	          0.48438036	          0.07372336	         -0.42616576	          0.51525420	          0.06588753	         -0.14195548	          0.49782130	          0.06645710	         -0.37232083	          0.47773126	          0.03738621	         -0.14386822	          0.43720138	          0.04131880	         -0.38093418	          0.55259949	          1.17209172	         -0.27280876	          0.58901763	          1.09309494	         -0.27391165	          0.46011817	          1.21905327	         -0.28702414	          0.56431365	          1.17174268	         -0.23290037	          0.56881368	          1.17713547	         -0.30790511	          0.60711837	          0.03666615	         -0.08495795	          0.59588391	          0.03891550	         -0.42051923	          0.59083313	          0.52876443	         -0.05627535	          0.65951812	          0.52577597	         -0.35522252	          0.52604103	          0.58864444	         -0.09777412	          0.59862876	          0.59764266	         -0.38219339	          0.51522505	          0.50138199	         -0.10605486	          0.57389885	          0.51315302	         -0.38500077	          0.46628922	          0.18525216	         -0.02129957	          0.49046016	          0.20562908	         -0.48773742	          0.48066437	          0.14463201	         -0.09177318	          0.47865134	          0.15839811	         -0.41917628	
